PathFileType	3	(X/Y/Z)	RCH0000002 BBF 13.c3d
DataRate	CameraRate	NumFrames	NumMarkers	Units	OrigDataRate	OrigDataStartFrame	OrigNumFrames
100.0	100.0	7	23	mm	100.0	28	457
Frame#	Time	T2			T10			MAN			LASI			RASI			LPSI			RPSI			LPAT			LKNE			LANK			LMED			LHEE			LTOE			RPAT			RKNE			RANK			RMED			RHEE			RTOE			RTHI			LTHI			RTIB			LTIB			
		X1	Y1	Z1	X2	Y2	Z2	X3	Y3	Z3	X4	Y4	Z4	X5	Y5	Z5	X6	Y6	Z6	X7	Y7	Z7	X8	Y8	Z8	X9	Y9	Z9	X10	Y10	Z10	X11	Y11	Z11	X12	Y12	Z12	X13	Y13	Z13	X14	Y14	Z14	X15	Y15	Z15	X16	Y16	Z16	X17	Y17	Z17	X18	Y18	Z18	X19	Y19	Z19	X20	Y20	Z20	X21	Y21	Z21	X22	Y22	Z22	X23	Y23	Z23	

28	0.270	-2500.55082	-131.30281	973.26371	-2515.67465	-140.41342	785.74013	-2374.90060	-106.50373	928.39779	-2415.29881	-92.84672	617.86372	-2427.83805	-263.16927	662.68020	-2529.79918	-118.53987	678.29483	-2533.45658	-186.95686	701.10158	-2317.07873	-137.97447	397.06703	-2351.87392	-81.46389	342.37978	-2366.28121	-72.78933	71.49544	-2355.17126	-142.84266	84.49393	-2405.90424	-117.80617	94.87820	-2312.63828	-101.55702	73.82079	-2531.44904	-234.50841	371.26502	-2581.17757	-293.91346	361.57744	-2705.18269	-302.79761	106.57796	-2717.71337	-236.21832	125.79291	-2743.89215	-276.98636	154.63626	-2670.47631	-259.57234	82.18942	-2517.15456	-352.91192	460.39404	-2403.91768	-10.58463	455.47859	-2637.37059	-364.73838	253.09911	-2362.40633	-15.44461	231.08825	
29	0.280	-2489.82251	-127.91586	971.14576	-2501.76100	-140.30089	783.90993	-2363.34617	-104.25491	927.89044	-2403.37643	-90.75354	618.03277	-2414.02449	-261.94424	658.93322	-2517.28192	-118.79328	678.49409	-2520.01618	-187.72002	699.44841	-2308.13236	-138.58325	394.80460	-2342.22915	-81.34482	341.02061	-2365.44375	-71.59934	71.23607	-2354.98716	-141.78890	84.04075	-2404.55571	-116.45174	95.16475	-2312.04401	-100.88251	73.14289	-2514.47749	-232.05283	366.30181	-2565.08105	-290.89949	357.00555	-2696.88934	-302.54860	107.99444	-2709.45849	-236.09119	127.29253	-2733.32099	-276.91182	157.47508	-2665.01301	-259.04216	81.67771	-2502.22540	-350.46297	456.20564	-2392.17471	-9.73111	454.52373	-2623.13377	-362.71594	251.42024	-2356.14701	-15.00023	230.65927	
30	0.290	-2479.13251	-124.65440	969.18015	-2487.96726	-140.24578	782.24583	-2351.86430	-102.07151	927.49752	-2391.65653	-88.61600	618.33766	-2400.31526	-260.64083	655.29026	-2504.89931	-119.09542	678.85106	-2506.68175	-188.51248	697.94251	-2299.55840	-138.89175	392.67366	-2333.05128	-80.99654	339.78450	-2364.63512	-70.32279	71.00249	-2354.82225	-140.63756	83.67613	-2403.27932	-114.98757	95.49392	-2311.48652	-100.12934	72.50199	-2497.43165	-229.50838	361.45032	-2548.85984	-287.82362	352.49508	-2688.37382	-302.25288	109.52879	-2700.99749	-235.90512	128.89400	-2722.51750	-276.76187	160.38508	-2659.34155	-258.49005	81.30308	-2487.20644	-347.94544	452.10110	-2380.88278	-8.70556	453.72337	-2608.69866	-360.62554	249.79333	-2350.16781	-14.36370	230.24162	
31	0.300	-2468.49348	-121.63233	967.51005	-2474.38642	-140.28766	780.89953	-2340.49962	-100.01129	927.32507	-2380.30028	-86.39129	618.89606	-2386.78570	-259.18323	651.85987	-2492.75284	-119.47623	679.50168	-2493.53074	-189.34523	696.71790	-2291.67730	-138.65112	390.78329	-2324.74899	-80.23141	338.77516	-2363.88589	-68.90157	70.81768	-2354.68991	-139.31911	83.47428	-2402.13668	-113.34079	95.90019	-2310.99774	-99.23770	71.93163	-2480.20513	-226.79093	356.84637	-2532.36022	-284.62688	348.13086	-2679.36959	-301.86030	111.28339	-2692.07422	-235.59810	130.68203	-2711.22281	-276.45981	163.42246	-2653.18152	-257.88952	81.19343	-2471.98560	-345.29528	448.18565	-2370.43051	-7.36753	453.20624	-2593.84687	-358.40315	248.28948	-2344.72861	-13.38433	229.84773	
32	0.310	-2457.90818	-118.94027	966.25129	-2461.08790	-140.44832	779.99068	-2329.28018	-98.11955	927.45867	-2369.42331	-84.04649	619.79478	-2373.49021	-257.51105	648.73942	-2480.91359	-119.94621	680.54578	-2480.61855	-190.21330	695.88040	-2284.73309	-137.68478	389.20187	-2317.64236	-78.91697	338.05999	-2363.22745	-67.30423	70.69204	-2354.60323	-137.79326	83.48232	-2401.17982	-111.47240	96.39819	-2310.60492	-98.16893	71.45563	-2462.70711	-223.83354	352.62366	-2515.45134	-281.26341	344.00347	-2669.64639	-301.33520	113.34562	-2682.46197	-235.12298	132.72663	-2699.22718	-275.94659	166.63539	-2646.26823	-257.22466	81.46170	-2456.46714	-342.46236	444.56527	-2361.11611	-5.62066	453.05899	-2578.40256	-356.00127	246.98921	-2340.04542	-11.96190	229.48496	
33	0.320	-2447.37509	-116.64095	965.48532	-2448.12103	-140.72856	779.59872	-2318.22177	-96.42709	927.95723	-2359.09304	-81.56248	621.08197	-2360.46641	-255.58474	646.01187	-2469.42394	-120.49376	682.03817	-2467.98251	-191.09389	695.50048	-2278.87889	-135.90683	387.95386	-2311.94158	-76.99037	337.66633	-2362.68996	-65.53227	70.62438	-2354.57311	-136.05560	83.71713	-2400.44703	-109.38510	96.98256	-2310.32840	-96.91094	71.08727	-2444.87796	-220.59292	348.91063	-2498.04337	-277.70595	340.20855	-2659.02725	-300.65830	115.77864	-2671.97985	-234.45025	135.07471	-2686.38920	-275.18475	170.05633	-2638.36719	-256.49075	82.19661	-2440.58708	-339.41582	441.34459	-2353.12922	-3.42362	453.31939	-2562.25279	-353.39435	245.98033	-2336.27773	-10.05875	229.15627	
34	0.330	-2436.89215	-114.76844	965.25754	-2435.51892	-141.10871	779.76135	-2307.33170	-94.94999	928.85105	-2349.33194	-78.93488	622.76638	-2347.73898	-253.38689	643.74382	-2458.30169	-121.08712	683.98775	-2455.64594	-191.94817	695.61174	-2274.17574	-133.32560	387.02654	-2307.74048	-74.46144	337.58640	-2362.29930	-63.62076	70.60674	-2354.60550	-134.13805	84.16891	-2399.95941	-107.12395	97.63355	-2310.17963	-95.47912	70.83081	-2426.69457	-217.05103	345.82592	-2480.09421	-273.94743	336.84344	-2647.39227	-299.82414	118.61430	-2660.49769	-233.56671	137.74410	-2672.63809	-274.15768	173.69549	-2629.28124	-255.69146	83.45531	-2424.31922	-336.14569	438.62330	-2346.54771	-0.79108	453.97922	-2545.35203	-350.57951	245.35249	-2333.52252	-7.70128	228.86263	
